<?xml version="1.0" standalone="no"?>
<!DOCTYPE svg PUBLIC "-//W3C//DTD SVG 20010904//EN"
 "http://www.w3.org/TR/2001/REC-SVG-20010904/DTD/svg10.dtd">
<svg version="1.0" xmlns="http://www.w3.org/2000/svg"
 width="991.000000pt" height="990.000000pt" viewBox="0 0 991.000000 990.000000"
 preserveAspectRatio="xMidYMid meet">
<metadata>
Created by potrace 1.15, written by Peter Selinger 2001-2017
</metadata>
<g transform="translate(0.000000,990.000000) scale(0.100000,-0.100000)"
fill="#000000" stroke="none">
<path d="M441 5534 c-105 -28 -181 -74 -266 -159 -125 -125 -175 -247 -175
-425 0 -178 50 -300 175 -425 56 -56 100 -90 145 -112 136 -66 56 -63 1437
-63 l1252 0 79 25 c195 62 356 235 403 435 16 71 16 209 0 280 -47 200 -208
373 -403 435 l-79 25 -1257 -1 c-1069 0 -1265 -3 -1311 -15z"/>
<path d="M6840 5534 c-101 -26 -180 -73 -265 -159 -125 -125 -175 -246 -175
-425 0 -110 17 -186 63 -280 43 -89 168 -214 257 -257 136 -66 57 -63 1430
-63 1081 0 1254 2 1305 15 197 50 364 212 425 410 30 98 30 252 0 350 -61 198
-228 360 -425 410 -87 22 -2530 22 -2615 -1z"/>
<path d="M3435 4104 c-11 -2 -45 -9 -75 -15 -30 -6 -89 -27 -130 -46 -73 -34
-95 -55 -963 -922 -839 -837 -890 -890 -927 -962 -187 -359 13 -787 408 -875
143 -32 310 -4 438 72 48 28 263 238 941 918 808 809 882 886 911 946 46 97
62 170 62 287 0 180 -59 315 -193 440 -70 65 -172 121 -259 142 -54 13 -183
22 -213 15z"/>
<path d="M6283 4096 c-247 -47 -436 -241 -480 -493 -25 -142 4 -296 79 -419
21 -35 330 -351 912 -932 964 -962 918 -920 1082 -962 144 -37 304 -18 437 52
90 47 204 164 250 255 94 190 87 411 -19 589 -28 47 -240 265 -918 942 -863
862 -883 881 -956 915 -129 60 -258 77 -387 53z"/>
<path d="M4820 3494 c-168 -36 -332 -160 -405 -306 -69 -140 -65 -52 -65
-1433 0 -1389 -4 -1302 68 -1439 126 -241 415 -366 687 -296 205 52 377 223
430 426 22 86 23 2529 0 2614 -82 310 -399 502 -715 434z"/>
</g>
</svg>
